<svg width="24" height="24" viewBox="0 0 24 24" fill="none" xmlns="http://www.w3.org/2000/svg">
<path d="M11.9999 13.092C15.5999 13.092 18.5459 10.146 18.5459 6.546C18.5459 2.946 15.5999 0 11.9999 0C8.39986 0 5.45386 2.946 5.45386 6.546C5.45386 10.146 8.39986 13.092 11.9999 13.092ZM11.9999 1.0908C14.9999 1.0908 17.4527 3.5448 17.4527 6.546C17.4539 9.546 14.9999 12 11.9999 12C8.99986 12 6.54466 9.546 6.54466 6.546C6.54586 3.5448 8.99986 1.0908 11.9999 1.0908Z" fill="#1A1A1A"/>
<path d="M16.9104 14.1804H7.0908C3.1632 14.1804 0 17.346 0 21.2748V24H1.0908V21.2748C1.0908 17.946 3.7644 15.2736 7.0908 15.2736H16.9104C20.2356 15.2736 22.9116 17.946 22.9116 21.2748V24H24V21.2748C24 17.346 20.8368 14.1804 16.9104 14.1804Z" fill="#1A1A1A"/>
</svg>
