<svg width="32" height="32" viewBox="0 0 32 32" fill="none" xmlns="http://www.w3.org/2000/svg">
<rect width="32" height="32" fill="white"/>
<circle cx="16" cy="16" r="16" fill="#A9D04D"/>
<path d="M14.8433 11.3928L12.137 8.2688C11.825 7.90881 11.253 7.91041 10.8906 8.2736L8.66498 10.5032C8.00259 11.1664 7.81299 12.1512 8.19618 12.9408C10.4855 17.6807 14.3082 21.5088 19.0449 23.8047C19.8337 24.1879 20.8177 23.9983 21.4801 23.3351L23.7265 21.0847C24.0905 20.7207 24.0913 20.1455 23.7281 19.8335L20.5921 17.1416C20.2641 16.86 19.7545 16.8968 19.4257 17.2264L18.3345 18.3191C18.2787 18.3777 18.2051 18.4163 18.1252 18.429C18.0453 18.4417 17.9634 18.4279 17.8921 18.3895C16.1085 17.3624 14.6289 15.8809 13.6042 14.096C13.5658 14.0246 13.5519 13.9426 13.5646 13.8625C13.5773 13.7824 13.6159 13.7088 13.6746 13.6528L14.7625 12.564C15.0921 12.2328 15.1281 11.7208 14.8433 11.392V11.3928Z" stroke="white" stroke-width="2" stroke-linecap="round" stroke-linejoin="round"/>
</svg>
